<?xml version="1.0" encoding="UTF-8" standalone="no"?>
<svg
   xmlns:osb="http://www.openswatchbook.org/uri/2009/osb"
   xmlns:dc="http://purl.org/dc/elements/1.1/"
   xmlns:cc="http://creativecommons.org/ns#"
   xmlns:rdf="http://www.w3.org/1999/02/22-rdf-syntax-ns#"
   xmlns:svg="http://www.w3.org/2000/svg"
   xmlns="http://www.w3.org/2000/svg"
   xmlns:xlink="http://www.w3.org/1999/xlink"
   version="1.1"
   width="32"
   height="32"
   id="svg4151">
  <defs
     id="defs4153">
    <linearGradient
       id="linearGradient4281">
      <stop
         offset="0"
         style="stop-color:#ffffff;stop-opacity:1"
         id="stop4283" />
      <stop
         offset="0.02591527"
         style="stop-color:#ffffff;stop-opacity:0.23529412"
         id="stop4285" />
      <stop
         offset="0.95833325"
         style="stop-color:#ffffff;stop-opacity:0.15686275"
         id="stop4287" />
      <stop
         offset="1"
         style="stop-color:#ffffff;stop-opacity:0.39215687"
         id="stop4289" />
    </linearGradient>
    <linearGradient
       x1="23.99999"
       y1="6.2399855"
       x2="23.99999"
       y2="41.759987"
       id="linearGradient3174"
       xlink:href="#linearGradient4281"
       gradientUnits="userSpaceOnUse"
       gradientTransform="matrix(0.78378379,0,0,0.67567568,-2.8108117,-0.22000024)" />
    <radialGradient
       cx="4.9929786"
       cy="43.5"
       r="2.5"
       fx="4.9929786"
       fy="43.5"
       id="radialGradient2976"
       xlink:href="#linearGradient3688-166-749-6"
       gradientUnits="userSpaceOnUse"
       gradientTransform="matrix(1.6030273,0,0,0.59999988,19.990504,3.4000047)" />
    <linearGradient
       id="linearGradient3688-166-749-6">
      <stop
         id="stop2883-8"
         style="stop-color:#181818;stop-opacity:1"
         offset="0" />
      <stop
         id="stop2885-3"
         style="stop-color:#181818;stop-opacity:0"
         offset="1" />
    </linearGradient>
    <radialGradient
       cx="4.9929786"
       cy="43.5"
       r="2.5"
       fx="4.9929786"
       fy="43.5"
       id="radialGradient2978"
       xlink:href="#linearGradient3688-464-309-7"
       gradientUnits="userSpaceOnUse"
       gradientTransform="matrix(1.6030273,0,0,0.59999988,-12.009497,-55.599994)" />
    <linearGradient
       id="linearGradient3688-464-309-7">
      <stop
         id="stop2889-0"
         style="stop-color:#181818;stop-opacity:1"
         offset="0" />
      <stop
         id="stop2891-66"
         style="stop-color:#181818;stop-opacity:0"
         offset="1" />
    </linearGradient>
    <linearGradient
       x1="25.058096"
       y1="47.027729"
       x2="25.058096"
       y2="39.999443"
       id="linearGradient2980"
       xlink:href="#linearGradient3702-501-757-3"
       gradientUnits="userSpaceOnUse"
       gradientTransform="matrix(0.85714282,0,0,0.42857134,-4.571428,10.857146)" />
    <linearGradient
       id="linearGradient3702-501-757-3">
      <stop
         id="stop2895-3"
         style="stop-color:#181818;stop-opacity:0"
         offset="0" />
      <stop
         id="stop2897-28"
         style="stop-color:#181818;stop-opacity:1"
         offset="0.5" />
      <stop
         id="stop2899-8"
         style="stop-color:#181818;stop-opacity:0"
         offset="1" />
    </linearGradient>
    <linearGradient
       id="linearGradient3764">
      <stop
         id="stop3766"
         style="stop-color:#d1d1d1;stop-opacity:1"
         offset="0" />
      <stop
         id="stop3768"
         style="stop-color:#eaeaea;stop-opacity:1"
         offset="1" />
    </linearGradient>
    <linearGradient
       id="linearGradient3242-7-6">
      <stop
         id="stop3244-6-4"
         style="stop-color:#f89b7e;stop-opacity:1"
         offset="0" />
      <stop
         id="stop3246-7-5"
         style="stop-color:#e35d4f;stop-opacity:1"
         offset="0.26238" />
      <stop
         id="stop3248-8-6"
         style="stop-color:#c6262e;stop-opacity:1"
         offset="0.66093999" />
      <stop
         id="stop3250-6-8"
         style="stop-color:#690b2c;stop-opacity:1"
         offset="1" />
    </linearGradient>
    <linearGradient
       id="linearGradient4685">
      <stop
         offset="0"
         style="stop-color:#ffffff;stop-opacity:1"
         id="stop4687" />
      <stop
         offset="1"
         style="stop-color:#ffffff;stop-opacity:0"
         id="stop4689" />
    </linearGradient>
    <linearGradient
       id="outerBackgroundGradient-5-0">
      <stop
         id="stop3864-8-6-4"
         style="stop-color:#261e2b;stop-opacity:1"
         offset="0" />
      <stop
         id="stop3866-9-1-86"
         style="stop-color:#352f39;stop-opacity:1"
         offset="1" />
    </linearGradient>
    <linearGradient
       x1="10"
       y1="-3"
       x2="20"
       y2="12"
       id="linearGradient3887"
       xlink:href="#linearGradient4685"
       gradientUnits="userSpaceOnUse"
       gradientTransform="matrix(1.1524956,0,0,1.0173579,-8.1367574,11.138862)" />
    <linearGradient
       id="linearGradient4526"
       osb:paint="solid">
      <stop
         style="stop-color:#ffffff;stop-opacity:1;"
         offset="0"
         id="stop4528" />
    </linearGradient>
    <linearGradient
       xlink:href="#outerBackgroundGradient-5-0"
       id="linearGradient1272"
       gradientUnits="userSpaceOnUse"
       gradientTransform="matrix(1.1481481,0,0,1,-67.062658,-59.931969)"
       x1="18.566542"
       y1="95.480614"
       x2="18.566542"
       y2="57.831203" />
    <radialGradient
       gradientTransform="matrix(-0.39994776,-0.79806438,-1.1998291,0.59855136,1276.2546,-586.23106)"
       gradientUnits="userSpaceOnUse"
       xlink:href="#linearGradient3764"
       id="radialGradient4407"
       fy="1039.7"
       fx="14.999991"
       r="3.5266583"
       cy="1039.7"
       cx="14.999991" />
    <radialGradient
       gradientTransform="matrix(0.39994776,-0.79806438,1.1998291,0.59855136,-1225.064,-586.23106)"
       gradientUnits="userSpaceOnUse"
       xlink:href="#linearGradient3764"
       id="radialGradient4409"
       fy="1039.7"
       fx="14.999991"
       r="3.5266583"
       cy="1039.7"
       cx="14.999991" />
    <radialGradient
       gradientTransform="matrix(0,2.0856738,-2.5766464,0,51.561592,1.9538421)"
       gradientUnits="userSpaceOnUse"
       xlink:href="#linearGradient3242-7-6"
       id="radialGradient4411"
       fy="9.9941158"
       fx="8.8626814"
       r="12.671875"
       cy="9.9941158"
       cx="8.8626814" />
    <linearGradient
       gradientTransform="matrix(0.49043499,0,0,0.50045513,1.0074558,0.78026574)"
       gradientUnits="userSpaceOnUse"
       xlink:href="#linearGradient4685"
       id="linearGradient4413"
       y2="42.054295"
       x2="58.032764"
       y1="40"
       x1="56" />
    <linearGradient
       gradientTransform="matrix(-0.49043499,0,0,0.50045513,50.23125,0.78026596)"
       gradientUnits="userSpaceOnUse"
       xlink:href="#linearGradient4685"
       id="linearGradient4415"
       y2="42.054295"
       x2="58.032764"
       y1="40"
       x1="56" />
  </defs>
  <metadata
     id="metadata4156">
    <rdf:RDF>
      <cc:Work
         rdf:about="">
        <dc:format>image/svg+xml</dc:format>
        <dc:type
           rdf:resource="http://purl.org/dc/dcmitype/StillImage" />
        <dc:title></dc:title>
      </cc:Work>
    </rdf:RDF>
  </metadata>
  <rect
     style="opacity:0.4;fill:url(#radialGradient2976);fill-opacity:1;stroke:none;stroke-width:0.561951"
     id="rect2801-0"
     y="28"
     x="28"
     height="2.9999993"
     width="4" />
  <rect
     style="opacity:0.4;fill:url(#radialGradient2978);fill-opacity:1;stroke:none;stroke-width:0.561951"
     id="rect3696-2"
     transform="scale(-1)"
     y="-30.999998"
     x="-4"
     height="2.9999993"
     width="4" />
  <rect
     style="opacity:0.4;fill:url(#linearGradient2980);fill-opacity:1;stroke:none;stroke-width:0.561951"
     id="rect3700-1"
     y="28"
     x="4"
     height="2.9999995"
     width="24" />
  <rect
     style="color:#000000;font-variation-settings:normal;clip-rule:nonzero;display:inline;overflow:visible;visibility:visible;opacity:1;isolation:auto;mix-blend-mode:normal;color-interpolation:sRGB;color-interpolation-filters:linearRGB;solid-color:#000000;solid-opacity:1;vector-effect:none;fill:url(#linearGradient1272);fill-opacity:1;fill-rule:nonzero;stroke:#170014;stroke-width:1;stroke-linecap:butt;stroke-linejoin:miter;stroke-miterlimit:4;stroke-dasharray:none;stroke-dashoffset:0;stroke-opacity:0.7;marker:none;color-rendering:auto;image-rendering:auto;shape-rendering:auto;text-rendering:auto;enable-background:accumulate;stop-color:#000000;stop-opacity:1"
     id="rect5505-21"
     y="2.5"
     x="0.49999997"
     ry="3"
     rx="2.9999998"
     height="27"
     width="30.999998" />
  <rect
     style="opacity:0.3;fill:none;stroke:url(#linearGradient3174);stroke-width:1;stroke-linecap:round;stroke-linejoin:round;stroke-miterlimit:4;stroke-dasharray:none;stroke-dashoffset:0;stroke-opacity:1"
     id="rect6741-7-4"
     y="3.4999998"
     x="1.5"
     ry="2"
     rx="2"
     height="25"
     width="29" />
  <path
     id="rect3872"
     style="display:inline;opacity:0.2;fill:url(#linearGradient3887);fill-opacity:1;stroke:none;stroke-width:1.33358"
     d="M 3.4421619,3 C 2.3898982,3 1,4.2088456 1,5.112974 V 19 L 31,10.310119 V 5.112974 C 31,4.2088456 29.989794,3 28.620389,3 Z" />
  <path
     style="opacity:0.3;fill:#000000;fill-opacity:1;fill-rule:evenodd;stroke:none"
     id="path4477-4-2"
     d="m 11,10 v 1 h 4 v -1 z m 6,0 v 1 h 4 V 10 Z M 6,15 v 4 h 1 v -4 z m 19,0 v 4 h 1 v -4 z m -14,8 v 1 h 4 v -1 z m 6,0 v 1 h 4 v -1 z" />
  <path
     style="font-variation-settings:normal;opacity:0.65;vector-effect:none;fill:#ffffff;fill-opacity:1;fill-rule:evenodd;stroke:none;stroke-width:1;stroke-linecap:butt;stroke-linejoin:miter;stroke-miterlimit:4;stroke-dasharray:none;stroke-dashoffset:0;stroke-opacity:1;stop-color:#000000;stop-opacity:1"
     id="path4477-4-9"
     d="m 11,9 v 1 h 4 V 9 Z m 6,0 v 1 h 4 V 9 Z M 6,14 v 4 h 1 v -4 z m 19,0 v 4 h 1 v -4 z m -14,8 v 1 h 4 v -1 z m 6,0 v 1 h 4 v -1 z" />
  <path
     style="opacity:0.3;fill:none;stroke:#000000;stroke-width:1;stroke-linecap:round;stroke-linejoin:miter;stroke-miterlimit:4;stroke-dasharray:none;stroke-opacity:1"
     id="path2387-0-1-2-8"
     d="m 25.466752,21.5 c 0,2 0,2 -1.966752,2 m -15,-0.01662 c -2,0 -2,0 -2,-1.966752 m 18.966752,-9.000004 c 0,-2 0,-2 -1.966752,-2 m -15,0.01662 c -2,0 -2,0 -2,1.966752" />
  <path
     style="font-variation-settings:normal;opacity:0.65;vector-effect:none;fill:none;fill-opacity:1;stroke:#ffffff;stroke-width:1;stroke-linecap:butt;stroke-linejoin:miter;stroke-miterlimit:4;stroke-dasharray:none;stroke-dashoffset:0;stroke-opacity:1;stop-color:#000000;stop-opacity:1"
     id="path2387-0-1-2"
     d="m 25.466752,20.5 c 0,2 0,2 -1.966752,2 m -15,-0.01662 c -2,0 -2,0 -2,-1.966752 m 18.966752,-9.000004 c 0,-2 0,-2 -1.966752,-2 m -15,0.01662 c -2,0 -2,0 -2,1.966752" />
  <g
     id="g4397"
     transform="matrix(1.1201367,0,0,1.1201367,-3.073999,-3.7843059)">
    <path
       style="fill:url(#radialGradient4407);fill-opacity:1;stroke:none"
       id="path3782-1"
       d="m 25.261533,24.111839 -3.737787,-6.895616 c 0,0 -2.609397,5.488347 3.737787,9.006519 z" />
    <path
       style="fill:url(#radialGradient4409);fill-opacity:1;stroke:none"
       id="path2990-2"
       d="m 25.929176,24.111839 3.737786,-6.895616 c 0,0 2.609399,5.488347 -3.737786,9.006519 z" />
    <path
       style="color:#000000;display:inline;overflow:visible;visibility:visible;fill:url(#radialGradient4411);fill-opacity:1;fill-rule:nonzero;stroke:none;stroke-width:1;marker:none;enable-background:accumulate"
       id="path3788-7"
       d="m 23.857525,26.222742 c -0.973509,0.05182 -3.570293,0.64117 -3.570293,2.462721 0,2.081701 1.542697,2.814537 2.468351,2.814537 0.925653,0 2.432439,-0.703916 2.468349,-2.814537 0.02862,-1.68253 -0.574964,-2.359146 -1.057864,-2.462721 -0.06036,-0.01295 -0.169471,-0.0074 -0.308543,0 z m 3.129515,0 c -0.4829,0.103577 -1.086491,0.780191 -1.057864,2.462721 0.03592,2.110621 1.542696,2.814537 2.468349,2.814537 0.925654,0 2.468351,-0.732836 2.468351,-2.814537 0,-2.081773 -3.395937,-2.566295 -3.878836,-2.462721 z m -3.129515,1.319315 c 0,0 0.309098,3.612247 -1.586797,2.198857 -2.108225,-1.571638 1.586797,-2.198857 1.586797,-2.198857 z m 3.438058,0 c 0,0 3.695022,0.627219 1.586796,2.198857 -1.895894,1.41339 -1.586796,-2.198857 -1.586796,-2.198857 z" />
    <path
       style="opacity:0.5;fill:none;stroke:#000000;stroke-width:0.892748px;stroke-linecap:butt;stroke-linejoin:miter;stroke-opacity:1"
       id="path3782-0-0"
       d="m 25.261533,24.111839 -3.737787,-6.895617 c 0,0 -2.609398,5.488349 3.737787,9.006521 z" />
    <path
       style="opacity:0.5;fill:none;stroke:#000000;stroke-width:0.892748px;stroke-linecap:butt;stroke-linejoin:miter;stroke-opacity:1"
       id="path2990-3-9"
       d="m 25.929175,24.111839 3.737787,-6.895617 c 0,0 2.609398,5.488349 -3.737787,9.006521 z" />
    <path
       style="fill:none;stroke:url(#linearGradient4413);stroke-width:0.892748px;stroke-linecap:butt;stroke-linejoin:miter;stroke-opacity:1"
       id="path4683-3"
       d="m 29.468012,18.968681 -2.744172,5.35367 -0.04518,0.650423 c 2.138932,-1.487483 2.641626,-3.243227 2.746573,-4.649906 0.04711,-0.63148 0.131731,-0.89997 0.04277,-1.354187 z" />
    <path
       style="fill:none;stroke:url(#linearGradient4415);stroke-width:0.892748px;stroke-linecap:butt;stroke-linejoin:miter;stroke-opacity:1"
       id="path4683-1-6"
       d="m 21.770696,18.968681 2.744172,5.35367 0.04518,0.650423 c -2.138931,-1.487483 -2.641626,-3.243227 -2.746573,-4.649906 -0.04711,-0.63148 -0.131731,-0.89997 -0.04277,-1.354187 z" />
    <path
       style="color:#000000;display:inline;overflow:visible;visibility:visible;opacity:0.6;fill:none;stroke:#640000;stroke-width:0.892748;stroke-linecap:round;stroke-linejoin:round;stroke-miterlimit:4;stroke-dasharray:none;stroke-dashoffset:0;stroke-opacity:1;marker:none;enable-background:accumulate"
       id="path3788-5-0"
       d="m 23.857524,26.222743 c -0.973508,0.05182 -3.570292,0.641169 -3.570292,2.462719 0,2.081703 1.542696,2.814538 2.46835,2.814538 0.925654,0 2.432439,-0.703916 2.46835,-2.814538 0.02862,-1.682529 -0.574964,-2.359145 -1.057864,-2.462719 -0.06036,-0.01295 -0.169471,-0.0074 -0.308544,0 z m 3.129515,0 c -0.4829,0.103577 -1.08649,0.78019 -1.057864,2.462719 0.03592,2.110622 1.542696,2.814538 2.468351,2.814538 0.925653,0 2.468349,-0.732835 2.468349,-2.814538 0,-2.081771 -3.395936,-2.566294 -3.878836,-2.462719 z m -3.129515,1.319313 c 0,0 0.309098,3.612249 -1.586796,2.198857 -2.108225,-1.571636 1.586796,-2.198857 1.586796,-2.198857 z m 3.438059,0 c 0,0 3.695021,0.627221 1.586797,2.198857 -1.895895,1.413392 -1.586797,-2.198857 -1.586797,-2.198857 z" />
  </g>
</svg>
